<mxfile host="app.diagrams.net" modified="2022-12-08T09:45:33.237Z" agent="5.0 (Windows NT 10.0; Win64; x64) AppleWebKit/537.36 (KHTML, like Gecko) Chrome/108.0.0.0 Safari/537.36 Edg/108.0.1462.42" etag="S0yMY6t5xbBhB2InutiU" version="20.4.0" type="github">
  <diagram id="DgRbki_v6S4bZdSkkreO" name="Page-1">
    <mxGraphModel dx="1278" dy="579" grid="1" gridSize="10" guides="1" tooltips="1" connect="1" arrows="1" fold="1" page="1" pageScale="1" pageWidth="850" pageHeight="1100" math="0" shadow="0">
      <root>
        <mxCell id="0" />
        <mxCell id="1" parent="0" />
        <mxCell id="mu_PKLuF-hdTC0U7xH1n-13" style="edgeStyle=orthogonalEdgeStyle;rounded=0;orthogonalLoop=1;jettySize=auto;html=1;exitX=0.75;exitY=1;exitDx=0;exitDy=0;entryX=0;entryY=0.5;entryDx=0;entryDy=0;" parent="1" source="mu_PKLuF-hdTC0U7xH1n-1" target="mu_PKLuF-hdTC0U7xH1n-8" edge="1">
          <mxGeometry relative="1" as="geometry" />
        </mxCell>
        <mxCell id="mu_PKLuF-hdTC0U7xH1n-15" style="edgeStyle=orthogonalEdgeStyle;rounded=0;orthogonalLoop=1;jettySize=auto;html=1;exitX=0.5;exitY=1;exitDx=0;exitDy=0;entryX=0;entryY=0.25;entryDx=0;entryDy=0;" parent="1" source="mu_PKLuF-hdTC0U7xH1n-1" target="mu_PKLuF-hdTC0U7xH1n-8" edge="1">
          <mxGeometry relative="1" as="geometry">
            <Array as="points">
              <mxPoint x="400" y="460" />
              <mxPoint x="400" y="475" />
            </Array>
          </mxGeometry>
        </mxCell>
        <mxCell id="mu_PKLuF-hdTC0U7xH1n-1" value="&lt;h1&gt;Database Control Subsystem&lt;/h1&gt;" style="rounded=1;whiteSpace=wrap;html=1;" parent="1" vertex="1">
          <mxGeometry x="180" y="260" width="230" height="200" as="geometry" />
        </mxCell>
        <mxCell id="mu_PKLuF-hdTC0U7xH1n-3" style="edgeStyle=orthogonalEdgeStyle;rounded=0;orthogonalLoop=1;jettySize=auto;html=1;exitX=0.25;exitY=1;exitDx=0;exitDy=0;entryX=1;entryY=0.25;entryDx=0;entryDy=0;" parent="1" source="mu_PKLuF-hdTC0U7xH1n-2" target="mu_PKLuF-hdTC0U7xH1n-1" edge="1">
          <mxGeometry relative="1" as="geometry">
            <mxPoint x="180" y="100" as="targetPoint" />
          </mxGeometry>
        </mxCell>
        <mxCell id="mu_PKLuF-hdTC0U7xH1n-2" value="Tracker" style="rounded=0;whiteSpace=wrap;html=1;" parent="1" vertex="1">
          <mxGeometry x="470" y="60" width="120" height="60" as="geometry" />
        </mxCell>
        <mxCell id="mu_PKLuF-hdTC0U7xH1n-4" value="Current angle of positioner (int)" style="text;html=1;align=center;verticalAlign=middle;resizable=0;points=[];autosize=1;strokeColor=none;fillColor=none;" parent="1" vertex="1">
          <mxGeometry x="320" y="140" width="190" height="30" as="geometry" />
        </mxCell>
        <mxCell id="mu_PKLuF-hdTC0U7xH1n-6" value="" style="endArrow=classic;html=1;rounded=0;exitX=1.007;exitY=0.407;exitDx=0;exitDy=0;exitPerimeter=0;entryX=0.75;entryY=1;entryDx=0;entryDy=0;" parent="1" source="mu_PKLuF-hdTC0U7xH1n-1" target="mu_PKLuF-hdTC0U7xH1n-2" edge="1">
          <mxGeometry width="50" height="50" relative="1" as="geometry">
            <mxPoint x="480" y="290" as="sourcePoint" />
            <mxPoint x="530" y="240" as="targetPoint" />
            <Array as="points">
              <mxPoint x="560" y="340" />
            </Array>
          </mxGeometry>
        </mxCell>
        <mxCell id="mu_PKLuF-hdTC0U7xH1n-7" value="Angle needed for the positioner (int)" style="text;html=1;strokeColor=none;fillColor=none;align=center;verticalAlign=middle;whiteSpace=wrap;rounded=0;" parent="1" vertex="1">
          <mxGeometry x="560" y="170" width="120" height="30" as="geometry" />
        </mxCell>
        <mxCell id="mu_PKLuF-hdTC0U7xH1n-9" style="edgeStyle=orthogonalEdgeStyle;rounded=0;orthogonalLoop=1;jettySize=auto;html=1;exitX=0;exitY=0.25;exitDx=0;exitDy=0;entryX=1;entryY=0.75;entryDx=0;entryDy=0;" parent="1" source="mu_PKLuF-hdTC0U7xH1n-8" target="mu_PKLuF-hdTC0U7xH1n-1" edge="1">
          <mxGeometry relative="1" as="geometry">
            <Array as="points">
              <mxPoint x="510" y="410" />
            </Array>
          </mxGeometry>
        </mxCell>
        <mxCell id="mu_PKLuF-hdTC0U7xH1n-8" value="GUI" style="rounded=0;whiteSpace=wrap;html=1;" parent="1" vertex="1">
          <mxGeometry x="500" y="460" width="120" height="60" as="geometry" />
        </mxCell>
        <mxCell id="mu_PKLuF-hdTC0U7xH1n-10" value="Preference Ranking (int)" style="text;html=1;align=center;verticalAlign=middle;resizable=0;points=[];autosize=1;strokeColor=none;fillColor=none;" parent="1" vertex="1">
          <mxGeometry x="415" y="380" width="150" height="30" as="geometry" />
        </mxCell>
        <mxCell id="mu_PKLuF-hdTC0U7xH1n-14" value="Global Sat Coordinates" style="text;html=1;align=center;verticalAlign=middle;resizable=0;points=[];autosize=1;strokeColor=none;fillColor=none;" parent="1" vertex="1">
          <mxGeometry x="305" y="485" width="150" height="30" as="geometry" />
        </mxCell>
        <mxCell id="mu_PKLuF-hdTC0U7xH1n-16" value="RF Received&lt;br&gt;" style="text;html=1;align=center;verticalAlign=middle;resizable=0;points=[];autosize=1;strokeColor=none;fillColor=none;" parent="1" vertex="1">
          <mxGeometry x="400" y="450" width="90" height="30" as="geometry" />
        </mxCell>
        <mxCell id="2fLi5len7IHJut-LdACm-2" style="edgeStyle=orthogonalEdgeStyle;rounded=0;orthogonalLoop=1;jettySize=auto;html=1;exitX=1;exitY=0.75;exitDx=0;exitDy=0;entryX=0.25;entryY=0;entryDx=0;entryDy=0;" parent="1" source="2fLi5len7IHJut-LdACm-1" target="mu_PKLuF-hdTC0U7xH1n-1" edge="1">
          <mxGeometry relative="1" as="geometry" />
        </mxCell>
        <mxCell id="2fLi5len7IHJut-LdACm-1" value="Satellite&amp;nbsp;" style="rounded=0;whiteSpace=wrap;html=1;" parent="1" vertex="1">
          <mxGeometry x="60" y="70" width="120" height="60" as="geometry" />
        </mxCell>
        <mxCell id="2fLi5len7IHJut-LdACm-3" value="RF Recived" style="text;html=1;align=center;verticalAlign=middle;resizable=0;points=[];autosize=1;strokeColor=none;fillColor=none;" parent="1" vertex="1">
          <mxGeometry x="195" y="95" width="90" height="30" as="geometry" />
        </mxCell>
      </root>
    </mxGraphModel>
  </diagram>
</mxfile>
